<?xml version="1.0" standalone="no"?>
<!DOCTYPE svg PUBLIC "-//W3C//DTD SVG 20010904//EN"
 "http://www.w3.org/TR/2001/REC-SVG-20010904/DTD/svg10.dtd">
<svg version="1.0" xmlns="http://www.w3.org/2000/svg"
 width="440.000000pt" height="440.000000pt" viewBox="0 0 440.000000 440.000000"
 preserveAspectRatio="xMidYMid meet">
<metadata>
Created by potrace 1.11, written by Peter Selinger 2001-2013
</metadata>
<g transform="translate(0.000000,440.000000) scale(0.100000,-0.100000)"
fill="#000000" stroke="none">
<path d="M2037 4204 c-1 -1 -45 -5 -97 -8 -52 -4 -134 -14 -182 -22 -64 -12
-91 -14 -101 -6 -9 8 -25 8 -53 1 -309 -81 -631 -270 -890 -521 l-90 -88 -51
112 c-43 95 -64 148 -110 278 -10 28 -24 -42 -24 -120 0 -89 10 -148 52 -290
l30 -105 -56 -85 c-173 -263 -303 -637 -332 -955 -9 -98 -9 -238 0 -325 6 -62
8 -77 23 -142 3 -16 12 -28 19 -28 13 0 45 -84 45 -117 0 -59 152 -419 220
-519 16 -25 30 -47 30 -50 0 -3 31 -46 69 -97 259 -346 612 -590 1024 -708
321 -91 693 -98 992 -18 22 6 47 12 55 14 101 20 361 132 486 210 39 25 76 45
82 45 5 0 43 -15 83 -33 167 -76 369 -127 502 -127 391 0 521 342 298 784 -73
146 -167 261 -147 180 l7 -25 -31 22 c-16 13 -30 24 -30 25 0 1 11 26 24 55
22 51 73 201 82 244 44 199 58 306 58 470 0 110 -8 241 -18 290 -2 11 -7 40
-11 65 -37 240 -165 550 -313 760 -76 108 -112 150 -217 255 -145 146 -242
222 -395 311 -205 120 -474 217 -665 240 -27 4 -52 8 -55 9 -12 7 -306 24
-313 19z m1827 -2851 c40 -108 49 -200 30 -306 -16 -90 -26 -116 -56 -144 -61
-57 -164 -64 -300 -21 -75 24 -75 22 -8 95 94 101 212 268 271 386 16 31 31
57 33 57 2 0 16 -30 30 -67z"/>
</g>
</svg>
